<svg width="35" height="35" viewBox="0 0 35 35" fill="none" xmlns="http://www.w3.org/2000/svg">
<path fill-rule="evenodd" clip-rule="evenodd" d="M17.5001 5.83333C15.4595 5.83296 13.4546 6.36779 11.6853 7.38446C9.91605 8.40112 8.44438 9.86405 7.4172 11.6272C6.39002 13.3904 5.84326 15.3921 5.83149 17.4327C5.81971 19.4732 6.34334 21.4811 7.3501 23.256C8.03057 22.3717 8.90531 21.6556 9.90668 21.1633C10.9081 20.671 12.0092 20.4155 13.1251 20.4167H21.8751C22.991 20.4155 24.0921 20.671 25.0935 21.1633C26.0949 21.6556 26.9696 22.3717 27.6501 23.256C28.6569 21.4811 29.1805 19.4732 29.1687 17.4327C29.1569 15.3921 28.6102 13.3904 27.583 11.6272C26.5558 9.86405 25.0841 8.40112 23.3149 7.38446C21.5456 6.36779 19.5407 5.83296 17.5001 5.83333ZM29.0836 26.3608C29.2664 26.1226 29.4414 25.8786 29.6086 25.6287C31.2254 23.2264 32.0872 20.3957 32.0834 17.5C32.0834 9.44562 25.5545 2.91667 17.5001 2.91667C9.44572 2.91667 2.91676 9.44562 2.91676 17.5C2.91217 20.7036 3.96682 23.8189 5.91655 26.3608L5.90926 26.3871L6.42697 26.9894C7.79472 28.5885 9.49295 29.8719 11.4046 30.7513C13.3163 31.6308 15.3959 32.0852 17.5001 32.0833C17.8151 32.0833 18.1282 32.0736 18.4393 32.0542C21.0707 31.8882 23.6071 31.0085 25.7761 29.5094C26.8135 28.7938 27.7537 27.9467 28.5732 26.9894L29.0909 26.3871L29.0836 26.3608ZM17.5001 8.75C16.3398 8.75 15.227 9.21094 14.4065 10.0314C13.586 10.8519 13.1251 11.9647 13.1251 13.125C13.1251 14.2853 13.586 15.3981 14.4065 16.2186C15.227 17.0391 16.3398 17.5 17.5001 17.5C18.6604 17.5 19.7732 17.0391 20.5937 16.2186C21.4142 15.3981 21.8751 14.2853 21.8751 13.125C21.8751 11.9647 21.4142 10.8519 20.5937 10.0314C19.7732 9.21094 18.6604 8.75 17.5001 8.75Z" fill="#4476A2"/>
</svg>
